<?xml version="1.0" standalone="no"?>
 <!DOCTYPE svg PUBLIC "-//W3C//DTD SVG 1.1//EN" 
 "http://www.w3.org/Graphics/SVG/1.1/DTD/svg11.dtd"> 
<svg xmlns="http://www.w3.org/2000/svg" version="1.1" 
    width="3.59918cm" height="1.94056cm" viewBox="0 0 14170 7640 ">
<title>SVG Picture created as heartrate_sensor_nano_shield-F.Cu.svg date 2018/09/07 17:30:42 </title>
  <desc>Picture generated by PCBNEW </desc>
<g style="fill:#000000; fill-opacity:1;stroke:#000000; stroke-opacity:1;
stroke-linecap:round; stroke-linejoin:round; "
 transform="translate(0 0) scale(1 1)">
</g>
<g style="fill:#000000; fill-opacity:0.0; 
stroke:#000000; stroke-width:-0.000393701; stroke-opacity:1; 
stroke-linecap:round; stroke-linejoin:round;">
</g>
<g style="fill:#000000; fill-opacity:0.0; 
stroke:#000000; stroke-width:118.11; stroke-opacity:1; 
stroke-linecap:round; stroke-linejoin:round;">
<path d="M13256 5750
L13228 5778
L13199 5750
L13228 5722
L13256 5750
L13199 5750
" />
<path d="M9929 809
L9901 837
L9873 809
L9901 781
L9929 809
L9873 809
" />
<path d="M1020 6844
L1020 6253
" />
<path d="M1273 6844
L1273 6535
L1245 6478
L1189 6450
L1104 6450
L1048 6478
L1020 6507
" />
<path d="M1554 6844
L1554 6450
" />
<path d="M1554 6563
L1582 6507
L1611 6478
L1667 6450
L1723 6450
" />
<path d="M1836 6450
L2061 6450
" />
<path d="M1920 6253
L1920 6760
L1948 6816
L2004 6844
L2061 6844
" />
</g>
<g style="fill:#000000; fill-opacity:0.0; 
stroke:#000000; stroke-width:0; stroke-opacity:1; 
stroke-linecap:round; stroke-linejoin:round;">
</g>
<g style="fill:#000000; fill-opacity:1.0; 
stroke:#000000; stroke-width:0; stroke-opacity:1; 
stroke-linecap:round; stroke-linejoin:round;">
<polyline style="fill-rule:evenodd;"
points="11533,5092
11533,4342
12033,4342
12033,5092
11533,5092
" /> 
<polyline style="fill-rule:evenodd;"
points="12833,5092
12833,4342
13333,4342
13333,5092
12833,5092
" /> 
<polyline style="fill-rule:evenodd;"
points="11494,1903
11494,1153
11994,1153
11994,1903
11494,1903
" /> 
<polyline style="fill-rule:evenodd;"
points="12794,1903
12794,1153
13294,1153
13294,1903
12794,1903
" /> 
<polyline style="fill-rule:evenodd;"
points="9630,1317
10130,1317
10130,2317
9630,2317
9630,1317
" /> 
<polyline style="fill-rule:evenodd;"
points="9630,3466
10130,3466
10130,4466
9630,4466
9630,3466
" /> 
<polyline style="fill-rule:evenodd;"
points="8630,1317
9130,1317
9130,2317
8630,2317
8630,1317
" /> 
<polyline style="fill-rule:evenodd;"
points="8630,3466
9130,3466
9130,4466
8630,4466
8630,3466
" /> 
<polyline style="fill-rule:evenodd;"
points="7630,1317
8130,1317
8130,2317
7630,2317
7630,1317
" /> 
<polyline style="fill-rule:evenodd;"
points="7630,3466
8130,3466
8130,4466
7630,4466
7630,3466
" /> 
<polyline style="fill-rule:evenodd;"
points="6460,2890
5710,2890
5710,2390
6460,2390
6460,2890
" /> 
<polyline style="fill-rule:evenodd;"
points="6460,1590
5710,1590
5710,1090
6460,1090
6460,1590
" /> 
<polyline style="fill-rule:evenodd;"
points="6460,5134
5710,5134
5710,4634
6460,4634
6460,5134
" /> 
<polyline style="fill-rule:evenodd;"
points="6460,3834
5710,3834
5710,3334
6460,3334
6460,3834
" /> 
<polyline style="fill-rule:evenodd;"
points="2365,2890
1615,2890
1615,2390
2365,2390
2365,2890
" /> 
<polyline style="fill-rule:evenodd;"
points="2365,1590
1615,1590
1615,1090
2365,1090
2365,1590
" /> 
<polyline style="fill-rule:evenodd;"
points="2385,5469
1635,5469
1635,4969
2385,4969
2385,5469
" /> 
<polyline style="fill-rule:evenodd;"
points="2385,4169
1635,4169
1635,3669
2385,3669
2385,4169
" /> 
<polyline style="fill-rule:evenodd;"
points="11843,2571
12394,2571
12394,2964
11843,2964
11843,2571
" /> 
<polyline style="fill-rule:evenodd;"
points="11843,3319
12394,3319
12394,3712
11843,3712
11843,3319
" /> 
<polyline style="fill-rule:evenodd;"
points="12709,2945
13260,2945
13260,3338
12709,3338
12709,2945
" /> 
<polyline style="fill-rule:evenodd;"
points="3384,1766
3734,1766
3734,2076
3384,2076
3384,1766
" /> 
<polyline style="fill-rule:evenodd;"
points="4184,1386
4534,1386
4534,1696
4184,1696
4184,1386
" /> 
<polyline style="fill-rule:evenodd;"
points="4184,2146
4534,2146
4534,2456
4184,2456
4184,2146
" /> 
<polyline style="fill-rule:evenodd;"
points="3384,4089
3734,4089
3734,4399
3384,4399
3384,4089
" /> 
<polyline style="fill-rule:evenodd;"
points="4184,3709
4534,3709
4534,4019
4184,4019
4184,3709
" /> 
<polyline style="fill-rule:evenodd;"
points="4184,4469
4534,4469
4534,4779
4184,4779
4184,4469
" /> 
<circle cx="6738.74" cy="6222.99" r="393.701" /> 
</g>
<g style="fill:#000000; fill-opacity:1.0; 
stroke:#000000; stroke-width:40; stroke-opacity:1; 
stroke-linecap:round; stroke-linejoin:round;">
</g>
<g style="fill:#000000; fill-opacity:1.0; 
stroke:#000000; stroke-width:0; stroke-opacity:1; 
stroke-linecap:round; stroke-linejoin:round;">
<circle cx="12738.7" cy="6222.99" r="393.701" /> 
</g>
<g style="fill:#000000; fill-opacity:1.0; 
stroke:#000000; stroke-width:40; stroke-opacity:1; 
stroke-linecap:round; stroke-linejoin:round;">
</g>
<g style="fill:#000000; fill-opacity:1.0; 
stroke:#000000; stroke-width:0; stroke-opacity:1; 
stroke-linecap:round; stroke-linejoin:round;">
<circle cx="11738.7" cy="6222.99" r="393.701" /> 
</g>
<g style="fill:#000000; fill-opacity:1.0; 
stroke:#000000; stroke-width:40; stroke-opacity:1; 
stroke-linecap:round; stroke-linejoin:round;">
</g>
<g style="fill:#000000; fill-opacity:1.0; 
stroke:#000000; stroke-width:0; stroke-opacity:1; 
stroke-linecap:round; stroke-linejoin:round;">
<circle cx="10738.7" cy="6222.99" r="393.701" /> 
</g>
<g style="fill:#000000; fill-opacity:1.0; 
stroke:#000000; stroke-width:40; stroke-opacity:1; 
stroke-linecap:round; stroke-linejoin:round;">
</g>
<g style="fill:#000000; fill-opacity:1.0; 
stroke:#000000; stroke-width:0; stroke-opacity:1; 
stroke-linecap:round; stroke-linejoin:round;">
<circle cx="9738.74" cy="6222.99" r="393.701" /> 
</g>
<g style="fill:#000000; fill-opacity:1.0; 
stroke:#000000; stroke-width:40; stroke-opacity:1; 
stroke-linecap:round; stroke-linejoin:round;">
</g>
<g style="fill:#000000; fill-opacity:1.0; 
stroke:#000000; stroke-width:0; stroke-opacity:1; 
stroke-linecap:round; stroke-linejoin:round;">
<circle cx="8738.74" cy="6222.99" r="393.701" /> 
</g>
<g style="fill:#000000; fill-opacity:1.0; 
stroke:#000000; stroke-width:40; stroke-opacity:1; 
stroke-linecap:round; stroke-linejoin:round;">
</g>
<g style="fill:#000000; fill-opacity:1.0; 
stroke:#000000; stroke-width:0; stroke-opacity:1; 
stroke-linecap:round; stroke-linejoin:round;">
<circle cx="7738.74" cy="6222.99" r="393.701" /> 
</g>
<g style="fill:#000000; fill-opacity:1.0; 
stroke:#000000; stroke-width:40; stroke-opacity:1; 
stroke-linecap:round; stroke-linejoin:round;">
</g>
<g style="fill:#000000; fill-opacity:1.0; 
stroke:#000000; stroke-width:157.48; stroke-opacity:1; 
stroke-linecap:round; stroke-linejoin:round;">
</g>
<g style="fill:#000000; fill-opacity:0.0; 
stroke:#000000; stroke-width:157.48; stroke-opacity:1; 
stroke-linecap:round; stroke-linejoin:round;">
<path d="M6085 4884
L4619 4884
" />
<path d="M4619 4884
L4359 4624
" />
<path d="M11783 4717
L11203 4717
" />
<path d="M8880 3966
L8880 5061
" />
<path d="M12118 3516
L11488 3516
" />
<path d="M11488 3516
L11203 3801
" />
<path d="M11203 3801
L11203 4717
" />
<path d="M11203 4717
L11203 4785
" />
<path d="M11203 4785
L10927 5061
" />
<path d="M10927 5061
L8880 5061
" />
<path d="M8447 5061
L6261 5061
" />
<path d="M8880 5061
L8447 5061
" />
<path d="M6261 5061
L6085 4884
" />
<path d="M6085 2640
L4697 2640
" />
<path d="M4697 2640
L4359 2301
" />
<path d="M6085 2640
L6853 2640
" />
<path d="M8880 3604
L8880 3966
" />
<path d="M8250 2974
L8880 3604
" />
<path d="M7187 2974
L8250 2974
" />
<path d="M6853 2640
L7187 2974
" />
<path d="M12738 6222
L12738 5061
" />
<path d="M12738 5061
L13083 4717
" />
<path d="M9880 1817
L10116 1817
" />
<path d="M10116 1817
L11242 691
" />
<path d="M9880 1817
L8880 1817
" />
<path d="M13044 1528
L13044 957
" />
<path d="M12778 691
L11242 691
" />
<path d="M13044 957
L12778 691
" />
<path d="M9880 1384
L9880 1817
" />
<path d="M13191 1675
L13044 1528
" />
<path d="M13211 1361
L13044 1528
" />
<path d="M13044 1528
L13044 3082
" />
<path d="M13044 3082
L12984 3142
" />
<path d="M9880 1817
L9880 2006
" />
<path d="M12984 1587
L13044 1528
" />
<path d="M13083 4717
L13083 3241
" />
<path d="M13083 3241
L12984 3142
" />
<path d="M10041 1656
L9880 1817
" />
<path d="M2384 6242
L5612 6242
" />
<path d="M5612 6242
L6301 6931
" />
<path d="M1990 2640
L947 2640
" />
<path d="M9880 2935
L8762 2935
" />
<path d="M947 1301
L947 2640
" />
<path d="M947 2640
L947 3152
" />
<path d="M1459 789
L947 1301
" />
<path d="M8073 789
L1459 789
" />
<path d="M8388 1104
L8073 789
" />
<path d="M8388 2561
L8388 1104
" />
<path d="M8762 2935
L8388 2561
" />
<path d="M2010 5219
L1636 5219
" />
<path d="M1636 5219
L947 4530
" />
<path d="M947 4530
L947 3152
" />
<path d="M10738 6222
L10738 6313
" />
<path d="M10738 6313
L10120 6931
" />
<path d="M10120 6931
L6301 6931
" />
<path d="M2384 6242
L2010 5868
" />
<path d="M2010 5868
L2010 5219
" />
<path d="M11744 1528
L11744 2610
" />
<path d="M11744 2610
L11902 2768
" />
<path d="M11902 2768
L12118 2768
" />
<path d="M10278 2935
L11754 2935
" />
<path d="M11754 2935
L11921 2768
" />
<path d="M11921 2768
L12118 2768
" />
<path d="M9880 3966
L9880 2935
" />
<path d="M10258 2935
L10278 2935
" />
<path d="M10278 2935
L9880 2935
" />
<path d="M11715 1498
L11744 1528
" />
<path d="M9860 3986
L9880 3966
" />
<path d="M11862 2768
L12118 2768
" />
<path d="M9884 3970
L9880 3966
" />
<path d="M6085 1340
L4560 1340
" />
<path d="M4560 1340
L4359 1541
" />
<path d="M7880 1817
L7289 1817
" />
<path d="M6813 1340
L6085 1340
" />
<path d="M7289 1817
L6813 1340
" />
<path d="M6085 3584
L4639 3584
" />
<path d="M4639 3584
L4359 3864
" />
<path d="M7880 3966
L7194 3966
" />
<path d="M6813 3584
L6085 3584
" />
<path d="M7194 3966
L6813 3584
" />
<path d="M3559 1921
L2915 1921
" />
<path d="M6738 6222
L6301 6222
" />
<path d="M2915 3073
L2915 1921
" />
<path d="M2915 1921
L2915 1616
" />
<path d="M2719 3270
L2915 3073
" />
<path d="M1537 3270
L2719 3270
" />
<path d="M1301 3506
L1537 3270
" />
<path d="M1301 4333
L1301 3506
" />
<path d="M1537 4569
L1301 4333
" />
<path d="M2679 4569
L1537 4569
" />
<path d="M2915 4805
L2679 4569
" />
<path d="M2915 5120
L2915 4805
" />
<path d="M3663 5868
L2915 5120
" />
<path d="M5947 5868
L3663 5868
" />
<path d="M6301 6222
L5947 5868
" />
<path d="M1990 1340
L2639 1340
" />
<path d="M2639 1340
L2915 1616
" />
<path d="M2132 1198
L1990 1340
" />
<path d="M2152 1179
L1990 1340
" />
<path d="M3559 4244
L3142 4244
" />
<path d="M2817 3919
L2010 3919
" />
<path d="M3142 4244
L2817 3919
" />
<path d="M7738 6222
L7738 5967
" />
<path d="M7738 5967
L7246 5474
" />
<path d="M7246 5474
L3821 5474
" />
<path d="M3821 5474
L3559 5212
" />
<path d="M3559 5212
L3559 4244
" />
</g>
<g style="fill:#FFFFFF; fill-opacity:0.0; 
stroke:#FFFFFF; stroke-width:157.48; stroke-opacity:1; 
stroke-linecap:round; stroke-linejoin:round;">
</g>
<g style="fill:#FFFFFF; fill-opacity:1.0; 
stroke:#FFFFFF; stroke-width:0; stroke-opacity:1; 
stroke-linecap:round; stroke-linejoin:round;">
<circle cx="6738.74" cy="6222.99" r="160" /> 
</g>
<g style="fill:#FFFFFF; fill-opacity:1.0; 
stroke:#FFFFFF; stroke-width:40; stroke-opacity:1; 
stroke-linecap:round; stroke-linejoin:round;">
</g>
<g style="fill:#FFFFFF; fill-opacity:1.0; 
stroke:#FFFFFF; stroke-width:0; stroke-opacity:1; 
stroke-linecap:round; stroke-linejoin:round;">
<circle cx="12738.7" cy="6222.99" r="160" /> 
</g>
<g style="fill:#FFFFFF; fill-opacity:1.0; 
stroke:#FFFFFF; stroke-width:40; stroke-opacity:1; 
stroke-linecap:round; stroke-linejoin:round;">
</g>
<g style="fill:#FFFFFF; fill-opacity:1.0; 
stroke:#FFFFFF; stroke-width:0; stroke-opacity:1; 
stroke-linecap:round; stroke-linejoin:round;">
<circle cx="11738.7" cy="6222.99" r="160" /> 
</g>
<g style="fill:#FFFFFF; fill-opacity:1.0; 
stroke:#FFFFFF; stroke-width:40; stroke-opacity:1; 
stroke-linecap:round; stroke-linejoin:round;">
</g>
<g style="fill:#FFFFFF; fill-opacity:1.0; 
stroke:#FFFFFF; stroke-width:0; stroke-opacity:1; 
stroke-linecap:round; stroke-linejoin:round;">
<circle cx="10738.7" cy="6222.99" r="160" /> 
</g>
<g style="fill:#FFFFFF; fill-opacity:1.0; 
stroke:#FFFFFF; stroke-width:40; stroke-opacity:1; 
stroke-linecap:round; stroke-linejoin:round;">
</g>
<g style="fill:#FFFFFF; fill-opacity:1.0; 
stroke:#FFFFFF; stroke-width:0; stroke-opacity:1; 
stroke-linecap:round; stroke-linejoin:round;">
<circle cx="9738.74" cy="6222.99" r="160" /> 
</g>
<g style="fill:#FFFFFF; fill-opacity:1.0; 
stroke:#FFFFFF; stroke-width:40; stroke-opacity:1; 
stroke-linecap:round; stroke-linejoin:round;">
</g>
<g style="fill:#FFFFFF; fill-opacity:1.0; 
stroke:#FFFFFF; stroke-width:0; stroke-opacity:1; 
stroke-linecap:round; stroke-linejoin:round;">
<circle cx="8738.74" cy="6222.99" r="160" /> 
</g>
<g style="fill:#FFFFFF; fill-opacity:1.0; 
stroke:#FFFFFF; stroke-width:40; stroke-opacity:1; 
stroke-linecap:round; stroke-linejoin:round;">
</g>
<g style="fill:#FFFFFF; fill-opacity:1.0; 
stroke:#FFFFFF; stroke-width:0; stroke-opacity:1; 
stroke-linecap:round; stroke-linejoin:round;">
<circle cx="7738.74" cy="6222.99" r="160" /> 
</g>
<g style="fill:#FFFFFF; fill-opacity:1.0; 
stroke:#FFFFFF; stroke-width:40; stroke-opacity:1; 
stroke-linecap:round; stroke-linejoin:round;">
</g>
<g style="fill:#000000; fill-opacity:1.0; 
stroke:#000000; stroke-width:40; stroke-opacity:1; 
stroke-linecap:round; stroke-linejoin:round;">
</g> 
</svg>
